<?xml version="1.0" standalone="no"?>
<!DOCTYPE svg PUBLIC "-//W3C//DTD SVG 20010904//EN"
 "http://www.w3.org/TR/2001/REC-SVG-20010904/DTD/svg10.dtd">
<svg version="1.0" xmlns="http://www.w3.org/2000/svg"
 width="512.000000pt" height="512.000000pt" viewBox="0 0 512.000000 512.000000"
 preserveAspectRatio="xMidYMid meet">
<metadata>
Created by potrace 1.14, written by Peter Selinger 2001-2017
</metadata>
<g transform="translate(0.000000,512.000000) scale(0.100000,-0.100000)"
fill="#000000" stroke="none">
<path d="M2368 5095 c-316 -54 -609 -215 -873 -480 -286 -287 -501 -669 -599
-1065 -29 -116 -40 -183 -67 -415 -11 -99 -22 -191 -24 -205 -2 -14 -7 -50
-10 -80 -3 -30 -8 -66 -10 -80 -5 -33 -17 -137 -20 -175 -2 -16 -6 -43 -8 -60
-3 -16 -9 -58 -12 -92 -3 -34 -7 -70 -9 -80 -2 -10 -7 -45 -11 -78 -3 -33 -8
-73 -10 -90 -2 -16 -6 -55 -10 -85 -3 -30 -8 -66 -10 -80 -2 -14 -11 -83 -20
-155 -30 -250 -37 -307 -40 -325 -2 -8 -6 -44 -10 -80 -3 -36 -8 -76 -10 -90
-6 -41 -14 -102 -20 -160 -3 -30 -8 -66 -10 -80 -2 -14 -7 -50 -11 -80 -3 -30
-8 -66 -9 -80 -2 -14 -6 -52 -10 -85 -4 -33 -8 -64 -8 -69 -1 -6 199 -10 490
-10 304 -1 496 -5 502 -11 4 -6 21 -41 36 -80 15 -38 33 -83 40 -100 29 -65
125 -316 125 -325 0 -32 34 11 148 184 70 107 130 195 135 195 4 1 7 -6 7 -14
0 -8 9 -34 19 -58 11 -23 69 -166 129 -317 l110 -275 22 50 c12 28 26 61 30
75 5 14 56 142 114 285 78 194 106 255 112 240 11 -30 144 -366 159 -400 7
-16 32 -78 56 -138 23 -59 46 -104 49 -100 4 5 24 53 45 108 21 55 46 118 55
140 10 22 50 122 90 223 40 100 73 182 74 182 2 0 61 -88 132 -195 71 -107
132 -195 135 -195 3 0 52 117 109 260 57 143 106 260 109 261 3 1 227 2 496 3
l490 2 -1 35 c-1 19 -4 52 -8 74 -3 22 -8 63 -11 90 -11 102 -16 141 -20 165
-2 14 -7 52 -11 85 -3 33 -8 68 -10 78 -2 10 -6 48 -10 85 -3 36 -7 74 -9 83
-2 9 -6 40 -10 70 -3 30 -12 104 -20 164 -8 61 -17 137 -20 170 -4 33 -8 67
-10 75 -2 8 -7 47 -11 85 -3 39 -8 78 -10 88 -2 10 -6 45 -9 78 -4 33 -8 69
-10 79 -2 10 -6 46 -10 79 -3 33 -7 68 -9 78 -2 10 -7 47 -11 83 -4 36 -9 73
-11 83 -2 10 -6 48 -10 85 -3 36 -7 74 -9 83 -2 9 -6 40 -10 70 -10 87 -14
119 -25 204 -5 44 -14 121 -20 170 -18 158 -20 169 -55 308 -133 528 -468
1015 -895 1301 -165 111 -383 200 -570 232 -73 12 -306 11 -382 -1z"/>
</g>
</svg>
